<svg xmlns="http://www.w3.org/2000/svg" xmlns:xlink="http://www.w3.org/1999/xlink" width="360" height="297" viewBox="0 0 360 297">
  <defs>
    <clipPath id="clip-path">
      <rect width="533" height="342" fill="none"/>
    </clipPath>
    <clipPath id="clip-path-2">
      <rect id="Rectangle_100" data-name="Rectangle 100" width="241.629" height="241.629" transform="translate(50 285)" fill="#fff"/>
    </clipPath>
    <clipPath id="clip-Initial_background_mobile">
      <rect width="360" height="297"/>
    </clipPath>
  </defs>
  <g id="Initial_background_mobile" data-name="Initial background mobile" clip-path="url(#clip-Initial_background_mobile)">
    <g id="Component_1_2" data-name="Component 1 – 2" transform="translate(-8 -85)" clip-path="url(#clip-path)">
      <ellipse id="Ellipse_9" data-name="Ellipse 9" cx="189" cy="135" rx="189" ry="135" fill="#ccd8e6"/>
      <ellipse id="Ellipse_10" data-name="Ellipse 10" cx="186.5" cy="135" rx="186.5" ry="135" transform="translate(160 72)" fill="#ccd8e6"/>
    </g>
    <g id="Mask_Group_6" data-name="Mask Group 6" transform="translate(9 -225)" clip-path="url(#clip-path-2)">
      <g id="online-shopping" transform="translate(50 292.225)">
        <g id="freepik--Floor--inject-40" transform="translate(0 87.672)">
          <ellipse id="freepik--floor--inject-40-2" data-name="freepik--floor--inject-40" cx="120.814" cy="69.753" rx="120.814" ry="69.753" fill="#f5f5f5"/>
        </g>
        <g id="freepik--Shadows--inject-40" transform="translate(7.311 118.7)">
          <path id="freepik--Shadow--inject-40" d="M184.7,158.553l25.987-15c3.146-1.815,3.146-4.759,0-6.553l-43.777-25.276a12.58,12.58,0,0,0-11.383,0l-25.987,15c-3.141,1.815-3.141,4.759,0,6.553l43.782,25.276A12.569,12.569,0,0,0,184.7,158.553Z" transform="translate(13.955 -110.361)" fill="#e0e0e0"/>
          <ellipse id="freepik--shadow--inject-40-2" data-name="freepik--shadow--inject-40" cx="26.662" cy="15.395" rx="26.662" ry="15.395" transform="translate(102.756 66.825)" fill="#e0e0e0"/>
          <path id="freepik--shadow--inject-40-3" data-name="freepik--shadow--inject-40" d="M42.366,183.611,11.242,165.634a1.3,1.3,0,0,1,0-2.455l66-38.111a4.708,4.708,0,0,1,4.25,0l31.124,17.987a1.3,1.3,0,0,1,0,2.455l-66,38.1A4.708,4.708,0,0,1,42.366,183.611Z" transform="translate(-10.362 -107.405)" fill="#e0e0e0"/>
        </g>
        <g id="freepik--Clouds--inject-40" transform="translate(167.787 10.045)">
          <g id="freepik--clouds--inject-40-2" data-name="freepik--clouds--inject-40">
            <path id="Path_906" data-name="Path 906" d="M144.546,32.267l3.025,1.749a3.613,3.613,0,0,1-.025-.4v-.872c0-1.563,1.094-2.193,2.445-1.417a4.759,4.759,0,0,1,1.457,1.406c.222-1.966,1.759-2.692,3.63-1.613a8.066,8.066,0,0,1,3.655,6.337v1.311a3.383,3.383,0,0,1-.313,1.512l2.521,1.452a3.025,3.025,0,0,1,1.356,2.349c0,.867-.6,1.22-1.356.786L144.546,35.4a3.025,3.025,0,0,1-1.356-2.349C143.19,32.186,143.8,31.838,144.546,32.267Z" transform="translate(-143.19 -18.303)" fill="#ebebeb"/>
            <path id="Path_907" data-name="Path 907" d="M161.243,26.353l1.669.65V23.318c0-2.914,2.324-3.614,4.85-2.158h0a10.128,10.128,0,0,1,4.572,7.92v.534a2.425,2.425,0,0,1,2.117.328h0a7.264,7.264,0,0,1,3.292,5.7v.242l2.324,1.341a4.779,4.779,0,0,1,2.168,3.751c0,1.381-.968,1.941-2.168,1.25L161.243,31.354a4.789,4.789,0,0,1-2.168-3.751C159.075,26.222,160.048,25.662,161.243,26.353Z" transform="translate(-139.884 -20.425)" fill="#ebebeb"/>
          </g>
        </g>
        <g id="freepik--Plants--inject-40" transform="translate(4.886 116.797)">
          <g id="freepik--plants--inject-40-2" data-name="freepik--plants--inject-40">
            <path id="Path_908" data-name="Path 908" d="M39.443,157.827s2.521-12.915-.58-24.565-9.729-20.391-17.477-23.547-16.5,2.117-9.578,9.845S32.2,137.2,33.182,158.216Z" transform="translate(-8.16 -108.786)" fill="#105c95"/>
            <g id="Group_53" data-name="Group 53" transform="translate(1.134)" opacity="0.15">
              <path id="Path_909" data-name="Path 909" d="M39.443,157.827s2.521-12.915-.58-24.565-9.729-20.391-17.477-23.547-16.5,2.117-9.578,9.845S32.2,137.2,33.182,158.216Z" transform="translate(-9.294 -108.786)"/>
            </g>
            <path id="Path_910" data-name="Path 910" d="M36.951,153.259h.1a.444.444,0,0,0,.408-.479c-1.82-23.325-15.053-37.032-21.793-41.019a.445.445,0,1,0-.454.766c6.6,3.907,19.564,17.361,21.359,40.329A.444.444,0,0,0,36.951,153.259Z" transform="translate(-6.974 -108.179)" fill="#fff"/>
            <path id="Path_911" data-name="Path 911" d="M8.4,138.37A5.8,5.8,0,0,0,9.992,141.4c1.094,1.129,2.465,1.966,3.5,3.151a2.4,2.4,0,0,1,.575,1.008c.227,1.008-.716,1.885-1.311,2.752a4.88,4.88,0,0,0,.746,6.2c1.679,1.512,4.119,1.6,6.322,2.016a6.664,6.664,0,0,1,4.214,2.667c1.114,1.633,1.054,3.821,1.593,5.666a9.412,9.412,0,0,0,5.293,5.833,14.075,14.075,0,0,0,4.668,1.084,5.278,5.278,0,0,0,3.362-.721c1.739-1.215,1.921-3.67,1.941-5.787l.076-9.538a27.471,27.471,0,0,0-.5-6.432c-.358-1.366-1.17-2.47-1.618-3.751-.726-2.077-.7-4.844-2.778-6.11-2.954-1.795-6.866-.807-10.082-2.092a23.456,23.456,0,0,1-3.065-1.719,14.219,14.219,0,0,0-7.758-2.2A9.039,9.039,0,0,0,9.114,136,2.727,2.727,0,0,0,8.4,138.37Z" transform="translate(-8.355 -103.66)" fill="#105c95"/>
            <path id="Path_912" data-name="Path 912" d="M37.9,167.75h.03a.338.338,0,0,0,.343-.338C38.553,146,18.363,137.226,13.347,136.2a.34.34,0,1,0-.136.665c4.9,1.008,24.651,9.578,24.379,30.539a.343.343,0,0,0,.308.343Z" transform="translate(-7.401 -103.08)" fill="#fff"/>
            <path id="Path_913" data-name="Path 913" d="M16.06,147.242a.282.282,0,0,0,.187-.04,17.076,17.076,0,0,1,14.549,0,.323.323,0,0,0,.262-.585,17.709,17.709,0,0,0-15.123.045.323.323,0,0,0-.121.439.313.313,0,0,0,.247.141Z" transform="translate(-6.811 -101.255)" fill="#fff"/>
          </g>
        </g>
        <g id="freepik--shopping-cart--inject-40" transform="translate(160.304 56.241)">
          <g id="freepik--shopping-cart--inject-40-2" data-name="freepik--shopping-cart--inject-40" transform="translate(0)">
            <path id="Path_914" data-name="Path 914" d="M169.9,144.221a7.057,7.057,0,0,0-3.493-5.323,2.115,2.115,0,0,0-2.334-.035h0L162,140.208l5,7.486,2.057-1.341h0A2.224,2.224,0,0,0,169.9,144.221Z" transform="translate(-131.792 -42.038)" fill="#455a64"/>
            <path id="Path_915" data-name="Path 915" d="M164.4,140.06a7.027,7.027,0,0,1,3.488,5.323c.116,2.016-1.26,2.929-3.075,2.016a7.058,7.058,0,0,1-3.488-5.323C161.219,140.045,162.595,139.143,164.4,140.06Z" transform="translate(-131.933 -41.795)" fill="#37474f"/>
            <path id="Path_916" data-name="Path 916" d="M163.148,142.737c-.045-.791.413-1.18,1.008-.872a2.566,2.566,0,0,1,1.19,2.016c.045.791-.413,1.18-1.008.872A2.581,2.581,0,0,1,163.148,142.737Z" transform="translate(-131.553 -41.366)" fill="#263238"/>
            <path id="Path_917" data-name="Path 917" d="M167.227,137.023s.2,3.63-1.452,5.006c-.313.262-.65.449-.842.63-.423.393-.091,1.049.459,1.306.8.373,4.981-1.008,6.584-4.537Z" transform="translate(-131.221 -42.352)" fill="#105c95"/>
            <path id="Path_918" data-name="Path 918" d="M167.227,137.023s.2,3.63-1.452,5.006c-.313.262-.65.449-.842.63-.423.393-.091,1.049.459,1.306.8.373,4.981-1.008,6.584-4.537Z" transform="translate(-131.221 -42.352)" opacity="0.6"/>
            <path id="Path_919" data-name="Path 919" d="M165.909,137.883s.2,3.63-1.452,5.006c-.313.262-.65.449-.842.63-.423.393-.091,1.049.459,1.306.8.373,4.981-1.008,6.584-4.537Z" transform="translate(-131.496 -42.173)" fill="#105c95"/>
            <path id="Path_920" data-name="Path 920" d="M165.909,137.883s.2,3.63-1.452,5.006c-.313.262-.65.449-.842.63-.423.393-.091,1.049.459,1.306.8.373,4.981-1.008,6.584-4.537Z" transform="translate(-131.496 -42.173)" opacity="0.4"/>
            <path id="Path_921" data-name="Path 921" d="M164.079,142.75a.67.67,0,0,1,.338.5c0,.2-.121.282-.3.192a.665.665,0,0,1-.333-.5C163.776,142.745,163.907,142.659,164.079,142.75Z" transform="translate(-131.42 -41.168)" fill="#263238"/>
            <path id="Path_922" data-name="Path 922" d="M188.61,131.743a7.058,7.058,0,0,0-3.488-5.323,2.184,2.184,0,0,0-2.339-.035h0l-2.072,1.346,5,7.486,2.052-1.341h0A2.235,2.235,0,0,0,188.61,131.743Z" transform="translate(-127.897 -44.633)" fill="#455a64"/>
            <path id="Path_923" data-name="Path 923" d="M183.11,127.584a7.058,7.058,0,0,1,3.488,5.323c.116,2.016-1.26,2.929-3.075,2.016a7.058,7.058,0,0,1-3.488-5.328C179.919,127.569,181.311,126.671,183.11,127.584Z" transform="translate(-128.039 -44.391)" fill="#37474f"/>
            <path id="Path_924" data-name="Path 924" d="M181.833,130.266c-.045-.8.413-1.185,1.008-.877a2.586,2.586,0,0,1,1.19,2.016c.045.791-.413,1.185-1.008.872A2.566,2.566,0,0,1,181.833,130.266Z" transform="translate(-127.664 -43.963)" fill="#263238"/>
            <path id="Path_925" data-name="Path 925" d="M185.671,124.99s.464,3.1-1.19,4.476c-.313.257-.65.444-.842.625-.423.393-.091,1.054.459,1.306.8.378,4.718-.464,6.322-4.033Z" transform="translate(-127.328 -44.857)" fill="#105c95"/>
            <path id="Path_926" data-name="Path 926" d="M185.671,124.99s.464,3.1-1.19,4.476c-.313.257-.65.444-.842.625-.423.393-.091,1.054.459,1.306.8.378,4.718-.464,6.322-4.033Z" transform="translate(-127.328 -44.857)" opacity="0.6"/>
            <path id="Path_927" data-name="Path 927" d="M184.614,125.411s.2,3.625-1.452,5.006c-.313.257-.65.444-.847.625-.418.393-.086,1.054.464,1.311.8.373,4.981-1.008,6.584-4.537Z" transform="translate(-127.602 -44.769)" fill="#105c95"/>
            <path id="Path_928" data-name="Path 928" d="M184.614,125.411s.2,3.625-1.452,5.006c-.313.257-.65.444-.847.625-.418.393-.086,1.054.464,1.311.8.373,4.981-1.008,6.584-4.537Z" transform="translate(-127.602 -44.769)" opacity="0.4"/>
            <path id="Path_929" data-name="Path 929" d="M182.784,130.275a.66.66,0,0,1,.333.5c0,.2-.121.282-.292.2a.67.67,0,0,1-.333-.5C182.477,130.275,182.613,130.174,182.784,130.275Z" transform="translate(-127.527 -43.765)" fill="#263238"/>
            <path id="Path_930" data-name="Path 930" d="M151.411,135a7.058,7.058,0,0,0-3.488-5.328,2.164,2.164,0,0,0-2.334-.03h0l-2.077,1.346,5,7.486,2.057-1.346h0A2.208,2.208,0,0,0,151.411,135Z" transform="translate(-135.64 -43.956)" fill="#455a64"/>
            <path id="Path_931" data-name="Path 931" d="M145.911,130.843a7.012,7.012,0,0,1,3.488,5.328c.116,2.016-1.26,2.929-3.07,2.016a7.012,7.012,0,0,1-3.488-5.323C142.725,130.828,144.1,129.925,145.911,130.843Z" transform="translate(-135.781 -43.713)" fill="#37474f"/>
            <path id="Path_932" data-name="Path 932" d="M144.635,133.52c-.045-.791.418-1.18,1.008-.872a2.571,2.571,0,0,1,1.195,2.016c.045.791-.418,1.18-1.008.872A2.581,2.581,0,0,1,144.635,133.52Z" transform="translate(-135.407 -43.285)" fill="#263238"/>
            <path id="Path_933" data-name="Path 933" d="M148.734,127.806s.207,3.625-1.452,5.006c-.313.262-.645.449-.842.63-.418.393-.091,1.049.464,1.306.8.373,4.981-1.008,6.584-4.537Z" transform="translate(-135.07 -44.271)" fill="#105c95"/>
            <path id="Path_934" data-name="Path 934" d="M148.734,127.806s.207,3.625-1.452,5.006c-.313.262-.645.449-.842.63-.418.393-.091,1.049.464,1.306.8.373,4.981-1.008,6.584-4.537Z" transform="translate(-135.07 -44.271)" opacity="0.6"/>
            <path id="Path_935" data-name="Path 935" d="M147.415,128.666s.207,3.63-1.452,5.006c-.313.262-.65.449-.842.63-.418.393-.091,1.049.464,1.306.8.373,4.981-1.008,6.584-4.537Z" transform="translate(-135.344 -44.092)" fill="#105c95"/>
            <path id="Path_936" data-name="Path 936" d="M147.415,128.666s.207,3.63-1.452,5.006c-.313.262-.65.449-.842.63-.418.393-.091,1.049.464,1.306.8.373,4.981-1.008,6.584-4.537Z" transform="translate(-135.344 -44.092)" opacity="0.4"/>
            <path id="Path_937" data-name="Path 937" d="M145.591,133.528a.665.665,0,0,1,.333.5c0,.2-.121.282-.3.192a.665.665,0,0,1-.333-.5C145.283,133.528,145.414,133.443,145.591,133.528Z" transform="translate(-135.269 -43.087)" fill="#263238"/>
            <path id="Path_938" data-name="Path 938" d="M170.864,122.26a7.027,7.027,0,0,0-3.488-5.323,2.125,2.125,0,0,0-2.334-.035h0l-2.077,1.346,5,7.486,2.057-1.341h0A2.223,2.223,0,0,0,170.864,122.26Z" transform="translate(-131.591 -46.609)" fill="#455a64"/>
            <path id="Path_939" data-name="Path 939" d="M165.341,118.1a7.027,7.027,0,0,1,3.529,5.323c.116,2.016-1.26,2.929-3.075,2.016a7.058,7.058,0,0,1-3.488-5.328C162.175,118.089,163.552,117.187,165.341,118.1Z" transform="translate(-131.73 -46.365)" fill="#37474f"/>
            <path id="Path_940" data-name="Path 940" d="M164.087,120.782c-.045-.791.418-1.185,1.008-.877a2.591,2.591,0,0,1,1.195,2.016c.04.791-.418,1.185-1.033.872A2.581,2.581,0,0,1,164.087,120.782Z" transform="translate(-131.358 -45.937)" fill="#263238"/>
            <path id="Path_941" data-name="Path 941" d="M168.187,115.067s.2,3.625-1.452,5.006c-.313.257-.65.444-.842.625-.423.393-.091,1.054.459,1.311.807.373,4.986-1.008,6.584-4.537Z" transform="translate(-131.021 -46.922)" fill="#105c95"/>
            <path id="Path_942" data-name="Path 942" d="M168.187,115.067s.2,3.625-1.452,5.006c-.313.257-.65.444-.842.625-.423.393-.091,1.054.459,1.311.807.373,4.986-1.008,6.584-4.537Z" transform="translate(-131.021 -46.922)" opacity="0.6"/>
            <path id="Path_943" data-name="Path 943" d="M166.868,115.927s.2,3.625-1.452,5.006c-.313.257-.65.444-.842.625-.423.393-.091,1.054.459,1.311.8.373,4.981-1.008,6.584-4.537Z" transform="translate(-131.296 -46.743)" fill="#105c95"/>
            <path id="Path_944" data-name="Path 944" d="M166.868,115.927s.2,3.625-1.452,5.006c-.313.257-.65.444-.842.625-.423.393-.091,1.054.459,1.311.8.373,4.981-1.008,6.584-4.537Z" transform="translate(-131.296 -46.743)" opacity="0.4"/>
            <path id="Path_945" data-name="Path 945" d="M165.038,120.789a.67.67,0,0,1,.338.5c0,.2-.121.282-.3.2a.686.686,0,0,1-.333-.5C164.736,120.789,164.867,120.7,165.038,120.789Z" transform="translate(-131.22 -45.738)" fill="#263238"/>
            <path id="Path_946" data-name="Path 946" d="M182.177,152.009a6.8,6.8,0,0,1-3.362-.6l-31.971-16c-1.8-.907-3.821-3.262-3.947-5.49l-1.689-29.884,1.664-.091,1.684,29.919a6.013,6.013,0,0,0,3.025,4.1l31.971,15.975a5.7,5.7,0,0,0,5-.287l17.724-10.259c.474-.313.746-.686.726-1.008s-.313-.63-.817-.887L170.27,118.97c-1.795-.9-3.811-3.262-3.937-5.495l-1.2-20.411,1.659-.091L168,113.395a5.988,5.988,0,0,0,3.025,4.1l31.91,18.526a2.805,2.805,0,0,1,1.739,2.279,2.873,2.873,0,0,1-1.477,2.485l-17.724,10.254a6.831,6.831,0,0,1-3.3.973Z" transform="translate(-136.119 -51.521)" fill="#105c95"/>
            <g id="Group_54" data-name="Group 54" transform="translate(5.089 41.452)" opacity="0.5">
              <path id="Path_947" data-name="Path 947" d="M182.177,152.009a6.8,6.8,0,0,1-3.362-.6l-31.971-16c-1.8-.907-3.821-3.262-3.947-5.49l-1.689-29.884,1.664-.091,1.684,29.919a6.013,6.013,0,0,0,3.025,4.1l31.971,15.975a5.7,5.7,0,0,0,5-.287l17.724-10.259c.474-.313.746-.686.726-1.008s-.313-.63-.817-.887L170.27,118.97c-1.795-.9-3.811-3.262-3.937-5.495l-1.2-20.411,1.659-.091L168,113.395a5.988,5.988,0,0,0,3.025,4.1l31.91,18.526a2.805,2.805,0,0,1,1.739,2.279,2.873,2.873,0,0,1-1.477,2.485l-17.724,10.254a6.831,6.831,0,0,1-3.3.973Z" transform="translate(-141.208 -92.973)"/>
            </g>
            <path id="Path_948" data-name="Path 948" d="M137.175,77.017a5.545,5.545,0,0,1,2.122-5.893L157.36,59.207a2.8,2.8,0,0,1,4.406,1.7l2.747,8.918-1.331.872-2.657-8.3a1.512,1.512,0,0,0-2.374-.832L140.613,73.2a3.635,3.635,0,0,0-1.391,3.8l2.319,7.9-1.6,1.049Z" transform="translate(-136.996 -58.663)" fill="#105c95"/>
            <g id="Group_55" data-name="Group 55" opacity="0.5">
              <path id="Path_949" data-name="Path 949" d="M137.175,77.017a5.545,5.545,0,0,1,2.122-5.893L157.36,59.207a2.8,2.8,0,0,1,4.406,1.7l2.747,8.918-1.331.872-2.657-8.3a1.512,1.512,0,0,0-2.374-.832L140.613,73.2a3.635,3.635,0,0,0-1.391,3.8l2.319,7.9-1.6,1.049Z" transform="translate(-136.996 -58.663)"/>
            </g>
            <path id="Path_950" data-name="Path 950" d="M139.418,84l24.59-16.111L166.6,100.8,142,116.911Z" transform="translate(-136.492 -56.742)" fill="#105c95"/>
            <path id="Path_951" data-name="Path 951" d="M159.772,67.892l2.591,32.913,42.653,21.52,7.254-27.943Zm15.36,31.9a2.228,2.228,0,0,1-2.788-1.447l-6.432-16.7a2.1,2.1,0,1,1,3.887-1.512l6.432,16.686a2.233,2.233,0,0,1-1.1,2.974Zm12.149,5.717a2.238,2.238,0,0,1-2.793-1.447l-6.427-16.686a2.1,2.1,0,1,1,3.887-1.512l6.427,16.686a2.233,2.233,0,0,1-1.094,2.944Zm12.144,5.712a2.228,2.228,0,0,1-2.788-1.442L190.21,93.1a2.1,2.1,0,1,1,3.887-1.512l6.427,16.686a2.223,2.223,0,0,1-1.1,2.939Z" transform="translate(-132.256 -56.742)" fill="#105c95"/>
            <path id="Path_952" data-name="Path 952" d="M159.772,67.892l2.591,32.913,42.653,21.52,7.254-27.943Zm15.36,31.9a2.228,2.228,0,0,1-2.788-1.447l-6.432-16.7a2.1,2.1,0,1,1,3.887-1.512l6.432,16.686a2.233,2.233,0,0,1-1.1,2.974Zm12.149,5.717a2.238,2.238,0,0,1-2.793-1.447l-6.427-16.686a2.1,2.1,0,1,1,3.887-1.512l6.427,16.686a2.233,2.233,0,0,1-1.094,2.944Zm12.144,5.712a2.228,2.228,0,0,1-2.788-1.442L190.21,93.1a2.1,2.1,0,1,1,3.887-1.512l6.427,16.686a2.223,2.223,0,0,1-1.1,2.939Z" transform="translate(-132.256 -56.742)" fill="#fff" opacity="0.55"/>
            <path id="Path_953" data-name="Path 953" d="M166.154,95.131l-24.6,16.111,42.658,21.52,24.59-16.106Z" transform="translate(-136.047 -51.072)" fill="#105c95"/>
            <path id="Path_954" data-name="Path 954" d="M166.154,95.131l-24.6,16.111,42.658,21.52,24.59-16.106Z" transform="translate(-136.047 -51.072)" opacity="0.1"/>
            <path id="Path_955" data-name="Path 955" d="M139.418,81.228l2.591,32.933,42.653,21.52,7.254-27.948Zm15.36,31.89a2.233,2.233,0,0,1-2.793-1.442L145.558,95a2.1,2.1,0,1,1,3.887-1.512l6.427,16.686a2.228,2.228,0,0,1-1.094,2.939Zm12.144,5.717a2.228,2.228,0,0,1-2.788-1.442l-6.427-16.686a2.1,2.1,0,1,1,3.887-1.512l6.427,16.686a2.223,2.223,0,0,1-1.1,2.954Zm12.149,5.717a2.228,2.228,0,0,1-2.788-1.447l-6.427-16.686a2.1,2.1,0,1,1,3.887-1.512l6.443,16.7A2.228,2.228,0,0,1,179.071,124.551Z" transform="translate(-136.492 -53.966)" fill="#105c95"/>
            <path id="Path_956" data-name="Path 956" d="M139.418,81.228l2.591,32.933,42.653,21.52,7.254-27.948Zm15.36,31.89a2.233,2.233,0,0,1-2.793-1.442L145.558,95a2.1,2.1,0,1,1,3.887-1.512l6.427,16.686a2.228,2.228,0,0,1-1.094,2.939Zm12.144,5.717a2.228,2.228,0,0,1-2.788-1.442l-6.427-16.686a2.1,2.1,0,1,1,3.887-1.512l6.427,16.686a2.223,2.223,0,0,1-1.1,2.954Zm12.149,5.717a2.228,2.228,0,0,1-2.788-1.447l-6.427-16.686a2.1,2.1,0,1,1,3.887-1.512l6.443,16.7A2.228,2.228,0,0,1,179.071,124.551Z" transform="translate(-136.492 -53.966)" fill="#fff" opacity="0.65"/>
            <path id="Path_957" data-name="Path 957" d="M184.121,105.92l24.59-16.1-7.254,27.943-24.59,16.106Z" transform="translate(-128.697 -52.178)" fill="#105c95"/>
            <path id="Path_958" data-name="Path 958" d="M184.121,105.92l24.59-16.1-7.254,27.943-24.59,16.106Z" transform="translate(-128.697 -52.178)" fill="#fff" opacity="0.2"/>
          </g>
        </g>
        <g id="freepik--Device--inject-40" transform="translate(33.866 0)">
          <g id="freepik--Decvice--inject-40">
            <path id="Path_959" data-name="Path 959" d="M92.778,28.428V147.649a2.822,2.822,0,0,1-1.749,2.374l-51.1,29.51V58.951Z" transform="translate(-30.763 -8.715)" fill="#105c95"/>
            <path id="Path_960" data-name="Path 960" d="M92.778,28.428V147.649a2.822,2.822,0,0,1-1.749,2.374l-51.1,29.51V58.951Z" transform="translate(-30.763 -8.715)" opacity="0.23"/>
            <g id="freepik--device--inject-40-2" data-name="freepik--device--inject-40">
              <path id="Path_961" data-name="Path 961" d="M100.036,15.632,39.7,50.481a4.537,4.537,0,0,0-2.016,3.529V200.816c0,1.3.917,1.83,2.016,1.18l60.337-34.849a4.537,4.537,0,0,0,2.016-3.529V16.812C102.092,15.512,101.18,14.982,100.036,15.632Zm-.9,138.267a2.822,2.822,0,0,1-1.749,2.379l-55.24,31.91c-.963.56-1.749.106-1.749-1.008V61.658L99.153,27.731V153.9Z" transform="translate(-31.23 -11.436)" fill="#105c95"/>
              <path id="Path_962" data-name="Path 962" d="M100.036,15.632,39.7,50.481a4.537,4.537,0,0,0-2.016,3.529V200.816c0,1.3.917,1.83,2.016,1.18l60.337-34.849a4.537,4.537,0,0,0,2.016-3.529V16.812C102.092,15.512,101.18,14.982,100.036,15.632Zm-.9,138.267a2.822,2.822,0,0,1-1.749,2.379l-55.24,31.91c-.963.56-1.749.106-1.749-1.008V61.658L99.153,27.731V153.9Z" transform="translate(-31.23 -11.436)" opacity="0.5"/>
              <path id="Path_963" data-name="Path 963" d="M98.691,25.6V151.766a2.829,2.829,0,0,1-1.749,2.379l-55.265,31.91c-.963.555-1.749.106-1.749-1.008v-4.92l51.1-29.51a2.822,2.822,0,0,0,1.749-2.374V29.021Z" transform="translate(-30.763 -9.303)" fill="#105c95"/>
              <path id="Path_964" data-name="Path 964" d="M41.677,164.7l55.265-31.91a4.159,4.159,0,0,0,1.346-1.134L92.319,128.2a4.265,4.265,0,0,1-1.291,1.054l-51.1,29.51v4.92C39.927,164.806,40.714,165.254,41.677,164.7Z" transform="translate(-30.763 12.053)" opacity="0.4"/>
              <path id="Path_965" data-name="Path 965" d="M92.292,128.2A4.265,4.265,0,0,1,91,129.256l-50.945,29.42v.655l51.1-29.51a3.655,3.655,0,0,0,1.512-1.411Z" transform="translate(-30.736 12.053)" opacity="0.15"/>
              <path id="Path_966" data-name="Path 966" d="M89.665,151.766V25.6l-5.913,3.418V148.237a2.107,2.107,0,0,1-.459,1.321h0l5.969,3.453A2.112,2.112,0,0,0,89.665,151.766Z" transform="translate(-21.736 -9.303)" opacity="0.6"/>
              <path id="Path_967" data-name="Path 967" d="M40.554,196.445a4.577,4.577,0,0,1-3.831-.126l-2.334-1.351a4.5,4.5,0,0,1-2.047-3.529V44.643a3.9,3.9,0,0,1,.358-1.512,4.89,4.89,0,0,1,.242-.5h0l6.422,3.71h0a5.576,5.576,0,0,0-.353.746,3.74,3.74,0,0,0-.252,1.265v146.8C38.769,196.34,39.55,196.884,40.554,196.445Z" transform="translate(-32.342 -5.759)" fill="#105c95"/>
              <path id="Path_968" data-name="Path 968" d="M40.554,196.445a4.577,4.577,0,0,1-3.831-.126l-2.334-1.351a4.5,4.5,0,0,1-2.047-3.529V44.643a3.9,3.9,0,0,1,.358-1.512,4.89,4.89,0,0,1,.242-.5h0l6.422,3.71h0a5.576,5.576,0,0,0-.353.746,3.74,3.74,0,0,0-.252,1.265v146.8C38.769,196.34,39.55,196.884,40.554,196.445Z" transform="translate(-32.342 -5.759)" opacity="0.6"/>
              <path id="Path_969" data-name="Path 969" d="M66.242,147.816h0c1.044,0,1.154,1.175,1.154,1.679a6.553,6.553,0,0,1-2.909,5.041,2.344,2.344,0,0,1-1.124.358c-1.049,0-1.159-1.17-1.159-1.674a6.553,6.553,0,0,1,2.909-5.041,2.344,2.344,0,0,1,1.129-.358m0-.625a2.9,2.9,0,0,0-1.442.444,7.113,7.113,0,0,0-3.221,5.58c0,1.457.726,2.3,1.785,2.3a2.944,2.944,0,0,0,1.437-.439,7.128,7.128,0,0,0,3.221-5.58C68.021,148.038,67.3,147.2,66.242,147.2Z" transform="translate(-26.256 16.006)" fill="#37474f"/>
              <path id="Path_970" data-name="Path 970" d="M64.526,31.777c.756-.434,1.371-.081,1.371.791a3.025,3.025,0,0,1-1.371,2.369c-.756.439-1.366.086-1.366-.791A3.025,3.025,0,0,1,64.526,31.777Z" transform="translate(-25.927 -8.056)" fill="#37474f"/>
              <path id="Path_971" data-name="Path 971" d="M58.4,40.256l14.8-8.57c.63-.363,1.139-.106,1.139.58a2.45,2.45,0,0,1-1.139,1.9l-14.8,8.57c-.63.363-1.144.106-1.144-.575a2.445,2.445,0,0,1,1.144-1.9Z" transform="translate(-27.155 -8.071)" fill="#37474f"/>
              <path id="Path_972" data-name="Path 972" d="M103.06,17.165c-.146-1.064-1.008-1.447-2.016-.857L40.7,51.157a4.164,4.164,0,0,0-1.437,1.512l-6.422-3.71a4.184,4.184,0,0,1,1.442-1.512L94.636,12.6a4.487,4.487,0,0,1,4.083,0l2.324,1.346a4.577,4.577,0,0,1,2.016,3.216Z" transform="translate(-32.237 -12.111)" fill="#105c95"/>
              <path id="Path_973" data-name="Path 973" d="M103.06,17.165c-.146-1.064-1.008-1.447-2.016-.857L40.7,51.157a4.164,4.164,0,0,0-1.437,1.512l-6.422-3.71a4.184,4.184,0,0,1,1.442-1.512L94.636,12.6a4.487,4.487,0,0,1,4.083,0l2.324,1.346a4.577,4.577,0,0,1,2.016,3.216Z" transform="translate(-32.237 -12.111)" opacity="0.3"/>
            </g>
            <path id="Path_974" data-name="Path 974" d="M48.121,134.01,46.4,133a2.163,2.163,0,0,1-1.008-1.7V65.487a2.163,2.163,0,0,1,1.008-1.7l33.049-19.1a2.163,2.163,0,0,1,1.966,0L83.136,45.7a2.178,2.178,0,0,1,1.008,1.7v65.847a2.163,2.163,0,0,1-1.008,1.7L50.087,134.01a2.147,2.147,0,0,1-1.966,0Z" transform="translate(-29.625 -5.38)" fill="#105c95"/>
            <path id="Path_975" data-name="Path 975" d="M48.121,134.01,46.4,133a2.163,2.163,0,0,1-1.008-1.7V65.487a2.163,2.163,0,0,1,1.008-1.7l33.049-19.1a2.163,2.163,0,0,1,1.966,0L83.136,45.7a2.178,2.178,0,0,1,1.008,1.7v65.847a2.163,2.163,0,0,1-1.008,1.7L50.087,134.01a2.147,2.147,0,0,1-1.966,0Z" transform="translate(-29.625 -5.38)" fill="#fff" opacity="0.6"/>
            <path id="Path_976" data-name="Path 976" d="M49.448,133.614,82.5,114.533a2.163,2.163,0,0,0,1.008-1.7V47.058c0-.625-.439-.882-1.008-.57L49.448,65.519a2.163,2.163,0,0,0-.983,1.7v65.831C48.464,133.674,48.893,133.931,49.448,133.614Z" transform="translate(-28.986 -4.983)" fill="#105c95"/>
            <path id="Path_977" data-name="Path 977" d="M49.448,133.614,82.5,114.533a2.163,2.163,0,0,0,1.008-1.7V47.058c0-.625-.439-.882-1.008-.57L49.448,65.519a2.163,2.163,0,0,0-.983,1.7v65.831C48.464,133.674,48.893,133.931,49.448,133.614Z" transform="translate(-28.986 -4.983)" fill="#fff" opacity="0.8"/>
            <path id="Path_978" data-name="Path 978" d="M84.048,47.4v.05c0-.625-.439-.882-1.008-.57L50.016,65.915a1.9,1.9,0,0,0-.595.575l-3.685-2.142a1.84,1.84,0,0,1,.595-.575L79.38,44.687a2.153,2.153,0,0,1,1.961,0L83.065,45.7a2.178,2.178,0,0,1,.983,1.709Z" transform="translate(-29.554 -5.38)" fill="#105c95"/>
            <path id="Path_979" data-name="Path 979" d="M84.048,47.4v.05c0-.625-.439-.882-1.008-.57L50.016,65.915a1.9,1.9,0,0,0-.595.575l-3.685-2.142a1.84,1.84,0,0,1,.595-.575L79.38,44.687a2.153,2.153,0,0,1,1.961,0L83.065,45.7a2.178,2.178,0,0,1,.983,1.709Z" transform="translate(-29.554 -5.38)" fill="#fff" opacity="0.95"/>
            <path id="Path_980" data-name="Path 980" d="M65.717,114.777a22.119,22.119,0,0,1-11.594,3.12c0-10.692,4.134-21.868,4.628-24.051s1.447-5.545,0-7.128-2.319-5.787-2.319-5.787,2.319-2.788,2.319-4.9V69.644l2.314-1.336v2.016c0,3.408,2.072,4.976,4.628,3.5h0c2.556-1.477,4.628-5.434,4.628-8.842V62.965l2.314-1.336v6.387c0,2.112,2.314,2.228,2.314,2.228a43.772,43.772,0,0,1-2.314,8.464c-1.452,3.287-.5,5.51,0,7.123s4.628,8.02,4.628,18.707c0,0-5.454,6.715-11.569,10.243" transform="translate(-27.808 -1.804)" fill="#37474f"/>
            <g id="freepik--toldo--inject-40" transform="translate(9.165 16.315)">
              <path id="Path_981" data-name="Path 981" d="M39.927,59.541l20.26,11.7,58.759-33.926L98.681,25.62Z" transform="translate(-39.927 -25.615)" fill="#f5f5f5"/>
              <path id="Path_982" data-name="Path 982" d="M39.927,54.347l20.26,11.7,6.528-3.771-20.26-11.7Z" transform="translate(-39.927 -20.42)" fill="#105c95"/>
              <path id="Path_983" data-name="Path 983" d="M50.739,48.109,70.994,59.8l6.528-3.766-20.255-11.7Z" transform="translate(-37.677 -21.718)" fill="#105c95"/>
              <path id="Path_984" data-name="Path 984" d="M61.546,41.866l20.26,11.7L88.334,49.8,68.074,38.1Z" transform="translate(-35.428 -23.018)" fill="#105c95"/>
              <path id="Path_985" data-name="Path 985" d="M72.353,35.628l20.26,11.7,6.528-3.771-20.26-11.7Z" transform="translate(-33.178 -24.316)" fill="#105c95"/>
              <path id="Path_986" data-name="Path 986" d="M83.164,29.386l20.255,11.7,6.528-3.771-20.255-11.7Z" transform="translate(-30.928 -25.615)" fill="#105c95"/>
              <path id="Path_987" data-name="Path 987" d="M62.1,60.91c0,2.4,1.462,3.529,3.267,2.47a7.847,7.847,0,0,0,3.267-6.241Z" transform="translate(-35.312 -19.054)" fill="#e6e6e6"/>
              <path id="Path_988" data-name="Path 988" d="M72.912,54.672c0,2.4,1.462,3.529,3.267,2.47A7.847,7.847,0,0,0,79.445,50.9Z" transform="translate(-33.062 -20.352)" fill="#e6e6e6"/>
              <path id="Path_989" data-name="Path 989" d="M83.723,48.434c0,2.4,1.462,3.529,3.267,2.465a7.845,7.845,0,0,0,3.267-6.236Z" transform="translate(-30.812 -21.651)" fill="#e6e6e6"/>
              <path id="Path_990" data-name="Path 990" d="M94.534,42.192c0,2.4,1.462,3.529,3.267,2.47a7.847,7.847,0,0,0,3.267-6.241Z" transform="translate(-28.561 -22.95)" fill="#e6e6e6"/>
              <path id="Path_991" data-name="Path 991" d="M56.7,64.031c0,2.4,1.462,3.529,3.267,2.47a7.843,7.843,0,0,0,3.262-6.241Z" transform="translate(-36.437 -18.404)" fill="#105c95"/>
              <path id="Path_992" data-name="Path 992" d="M67.508,57.814c0,2.4,1.462,3.529,3.267,2.465a7.841,7.841,0,0,0,3.262-6.236Z" transform="translate(-34.187 -19.698)" fill="#105c95"/>
              <path id="Path_993" data-name="Path 993" d="M78.319,51.555c0,2.4,1.462,3.529,3.262,2.47a7.861,7.861,0,0,0,3.267-6.241Z" transform="translate(-31.936 -21.001)" fill="#105c95"/>
              <path id="Path_994" data-name="Path 994" d="M89.13,45.3c0,2.4,1.462,3.529,3.262,2.47a7.861,7.861,0,0,0,3.267-6.241Z" transform="translate(-29.686 -22.304)" fill="#105c95"/>
              <path id="Path_995" data-name="Path 995" d="M99.942,39.07c0,2.4,1.462,3.529,3.262,2.47A7.851,7.851,0,0,0,106.47,35.3Z" transform="translate(-27.436 -23.599)" fill="#105c95"/>
              <g id="Group_56" data-name="Group 56" transform="translate(20.26 11.705)" opacity="0.2">
                <path id="Path_996" data-name="Path 996" d="M56.7,64.031c0,2.4,1.462,3.529,3.267,2.47a7.843,7.843,0,0,0,3.262-6.241Z" transform="translate(-56.697 -30.11)"/>
                <path id="Path_997" data-name="Path 997" d="M67.508,57.814c0,2.4,1.462,3.529,3.267,2.465a7.841,7.841,0,0,0,3.262-6.236Z" transform="translate(-54.447 -31.404)"/>
                <path id="Path_998" data-name="Path 998" d="M78.319,51.555c0,2.4,1.462,3.529,3.262,2.47a7.861,7.861,0,0,0,3.267-6.241Z" transform="translate(-52.196 -32.707)"/>
                <path id="Path_999" data-name="Path 999" d="M89.13,45.3c0,2.4,1.462,3.529,3.262,2.47a7.861,7.861,0,0,0,3.267-6.241Z" transform="translate(-49.946 -34.009)"/>
                <path id="Path_1000" data-name="Path 1000" d="M99.942,39.07c0,2.4,1.462,3.529,3.262,2.47A7.851,7.851,0,0,0,106.47,35.3Z" transform="translate(-47.696 -35.304)"/>
              </g>
            </g>
            <path id="Path_1001" data-name="Path 1001" d="M44.951,128.635a3.912,3.912,0,0,1,1.825-3.025l16.867-9.734c1.008-.585,1.82-.171,1.82.917a3.922,3.922,0,0,1-1.82,3.025l-16.867,9.739C45.768,130.138,44.951,129.724,44.951,128.635Z" transform="translate(-29.717 9.432)" fill="#105c95"/>
            <path id="Path_1002" data-name="Path 1002" d="M44.951,128.635a3.912,3.912,0,0,1,1.825-3.025l16.867-9.734c1.008-.585,1.82-.171,1.82.917a3.922,3.922,0,0,1-1.82,3.025l-16.867,9.739C45.768,130.138,44.951,129.724,44.951,128.635Z" transform="translate(-29.717 9.432)" fill="#fff" opacity="0.8"/>
            <path id="Path_1003" data-name="Path 1003" d="M47.488,130.733a1.205,1.205,0,0,1,.5-.03.9.9,0,0,1,.383.151.816.816,0,0,1,.247.292.877.877,0,0,1,.1.378.282.282,0,0,1-.04.151.222.222,0,0,1-.086.1l-.8.464a.3.3,0,0,1-.136.045.222.222,0,0,1-.106-.035l-.061-.05a.252.252,0,0,0-.111-.05.368.368,0,0,0-.181,0,.792.792,0,0,0-.267.111,1.3,1.3,0,0,0-.222.146,1.6,1.6,0,0,0-.192.171.894.894,0,0,0-.131.207.5.5,0,0,0-.05.232.2.2,0,0,0,.055.166.267.267,0,0,0,.2.04,1.575,1.575,0,0,0,.358-.076l.56-.171a2.151,2.151,0,0,1,.585-.106.726.726,0,0,1,.418.1.681.681,0,0,1,.247.343,1.9,1.9,0,0,1,.081.615,2.44,2.44,0,0,1-.1.681,3.383,3.383,0,0,1-.272.66,3.529,3.529,0,0,1-.428.61,4.5,4.5,0,0,1-.544.529v.575a.368.368,0,0,1-.05.181.3.3,0,0,1-.116.131l-.8.459a.106.106,0,0,1-.116,0,.161.161,0,0,1-.045-.126v-.6a1.412,1.412,0,0,1-.5.045.842.842,0,0,1-.4-.146.736.736,0,0,1-.257-.307,1.043,1.043,0,0,1-.1-.444.338.338,0,0,1,.04-.146.242.242,0,0,1,.091-.106l.8-.459a.333.333,0,0,1,.131-.05.166.166,0,0,1,.1.03.607.607,0,0,1,.076.066.3.3,0,0,0,.131.071.443.443,0,0,0,.207,0,.867.867,0,0,0,.307-.121,2.388,2.388,0,0,0,.534-.4.64.64,0,0,0,.217-.459c0-.081-.025-.136-.076-.156a.433.433,0,0,0-.237,0,2.944,2.944,0,0,0-.408.1c-.161.05-.358.111-.58.171a.953.953,0,0,1-.912-.066,1.21,1.21,0,0,1-.292-.948,2.52,2.52,0,0,1,.081-.595,3.371,3.371,0,0,1,.227-.615,3.685,3.685,0,0,1,.368-.59,3.746,3.746,0,0,1,.5-.534v-.6a.4.4,0,0,1,.045-.181.333.333,0,0,1,.116-.131l.8-.464a.1.1,0,0,1,.116,0,.141.141,0,0,1,.05.126Z" transform="translate(-29.683 12.421)" fill="#37474f"/>
            <path id="Path_1004" data-name="Path 1004" d="M48.454,131.856a.166.166,0,0,1-.03-.146.5.5,0,0,1,.066-.181l1.311-2.092c.03-.05.071-.116.116-.181a.5.5,0,0,1,.161-.161l.741-.428a.1.1,0,0,1,.116,0,.141.141,0,0,1,.05.126v5.243a.353.353,0,0,1-.05.181.3.3,0,0,1-.116.131l-.8.459a.106.106,0,0,1-.116,0,.161.161,0,0,1-.045-.126V131.15l-.726,1.144a.242.242,0,0,1-.121.116.091.091,0,0,1-.111,0Z" transform="translate(-28.995 12.145)" fill="#37474f"/>
            <path id="Path_1005" data-name="Path 1005" d="M52.909,127.374a1.8,1.8,0,0,1,.786-.277.817.817,0,0,1,.544.166,1.054,1.054,0,0,1,.323.5,2.939,2.939,0,0,1,.121.766v1.447a4.775,4.775,0,0,1-.121.907,3.892,3.892,0,0,1-.323.887,3.982,3.982,0,0,1-.544.8,3.252,3.252,0,0,1-.786.63,1.709,1.709,0,0,1-.781.272.771.771,0,0,1-.544-.161,1.008,1.008,0,0,1-.323-.5,2.863,2.863,0,0,1-.126-.766c0-.217,0-.449,0-.706V130.6a4.839,4.839,0,0,1,.126-.912,3.746,3.746,0,0,1,.323-.887,3.574,3.574,0,0,1,.544-.791A3.11,3.11,0,0,1,52.909,127.374Zm.65,3.221q.03-.706,0-1.361a1.765,1.765,0,0,0-.045-.348.474.474,0,0,0-.106-.232.237.237,0,0,0-.192-.086.625.625,0,0,0-.307.1,1.24,1.24,0,0,0-.3.247,1.356,1.356,0,0,0-.2.313,1.64,1.64,0,0,0-.106.358,2.6,2.6,0,0,0-.045.4q-.03.7,0,1.361a2.2,2.2,0,0,0,.04.353.474.474,0,0,0,.111.232.257.257,0,0,0,.2.086.681.681,0,0,0,.3-.1,1.2,1.2,0,0,0,.5-.565,1.4,1.4,0,0,0,.106-.358A2.017,2.017,0,0,0,53.56,130.6Z" transform="translate(-28.43 11.822)" fill="#37474f"/>
            <path id="Path_1006" data-name="Path 1006" d="M55.689,130.459a.353.353,0,0,1-.05.181.272.272,0,0,1-.116.131l-.8.464a.1.1,0,0,1-.116,0,.151.151,0,0,1-.045-.126V130.05a.438.438,0,0,1,.045-.187.333.333,0,0,1,.116-.131l.8-.459a.1.1,0,0,1,.116,0,.141.141,0,0,1,.05.126Z" transform="translate(-27.716 12.272)" fill="#37474f"/>
            <path id="Path_1007" data-name="Path 1007" d="M57.036,129.141a.789.789,0,0,0,.091.1.363.363,0,0,0,.126.081.5.5,0,0,0,.176,0,.63.63,0,0,0,.242-.091,1.381,1.381,0,0,0,.247-.187,1.725,1.725,0,0,0,.207-.252,1.376,1.376,0,0,0,.141-.3,1.054,1.054,0,0,0,.05-.338.368.368,0,0,0-.161-.358.5.5,0,0,0-.439.081.775.775,0,0,0-.161.126,1.937,1.937,0,0,0-.141.151l-.116.136a.62.62,0,0,1-.1.086l-.948.585a.1.1,0,0,1-.121,0,.131.131,0,0,1-.04-.126l.181-3a.5.5,0,0,1,.05-.187.307.307,0,0,1,.111-.126L59.042,124a.091.091,0,0,1,.116,0,.151.151,0,0,1,.045.126v.862a.418.418,0,0,1-.045.181.333.333,0,0,1-.116.131l-1.769,1.008-.045.751a2.2,2.2,0,0,1,.252-.282,1.729,1.729,0,0,1,.313-.232,1.794,1.794,0,0,1,.655-.247.822.822,0,0,1,.5.071.787.787,0,0,1,.348.4,1.941,1.941,0,0,1,.121.746,3.221,3.221,0,0,1-.136.938,3.558,3.558,0,0,1-.378.847,3.665,3.665,0,0,1-.56.711,3.433,3.433,0,0,1-.7.529,2.016,2.016,0,0,1-.736.282.918.918,0,0,1-.549-.06.741.741,0,0,1-.348-.353,1.25,1.25,0,0,1-.126-.57.348.348,0,0,1,.035-.151.333.333,0,0,1,.1-.106l.771-.444a.2.2,0,0,1,.151-.04A.211.211,0,0,1,57.036,129.141Z" transform="translate(-27.44 11.175)" fill="#37474f"/>
            <path id="Path_1008" data-name="Path 1008" d="M59.168,125.774a2.984,2.984,0,0,1,.151-.933,3.861,3.861,0,0,1,.4-.867,4.032,4.032,0,0,1,.57-.726,3.207,3.207,0,0,1,.66-.5,1.961,1.961,0,0,1,.665-.247.963.963,0,0,1,.57.071.837.837,0,0,1,.4.4,1.663,1.663,0,0,1,.151.761,2.721,2.721,0,0,1-.04.459,4.166,4.166,0,0,1-.1.434c-.045.136-.091.277-.146.413s-.106.267-.156.393l-1.154,2.8-.071.136a.237.237,0,0,1-.121.131l-.968.56h-.086a.166.166,0,0,1-.035-.106.262.262,0,0,1,0-.071v-.055l.781-1.906a1.6,1.6,0,0,1-.57.111.857.857,0,0,1-.479-.136.928.928,0,0,1-.328-.408,1.729,1.729,0,0,1-.091-.716Zm2.44-1.406a.559.559,0,0,0-.055-.262.318.318,0,0,0-.146-.146.409.409,0,0,0-.212-.025.675.675,0,0,0-.247.091,1.22,1.22,0,0,0-.242.2,1.542,1.542,0,0,0-.212.267,1.431,1.431,0,0,0-.146.307,1.089,1.089,0,0,0-.055.328.585.585,0,0,0,.055.267.3.3,0,0,0,.146.141.363.363,0,0,0,.212.025.625.625,0,0,0,.242-.091.963.963,0,0,0,.247-.192,1.543,1.543,0,0,0,.212-.267,1.467,1.467,0,0,0,.146-.313,1.089,1.089,0,0,0,.055-.328Z" transform="translate(-26.759 10.862)" fill="#37474f"/>
            <path id="Path_1009" data-name="Path 1009" d="M65,123.408c0,.544.408.751.912.459l1.6-.923a1.946,1.946,0,0,0,.912-1.512c0-.544-.408-.751-.912-.459l-1.6.917A1.956,1.956,0,0,0,65,123.408Z" transform="translate(-25.545 10.521)" fill="#37474f"/>
            <path id="Path_1010" data-name="Path 1010" d="M69.265,120.954c0,.544.408.751.907.464l1.6-.923a1.956,1.956,0,0,0,.912-1.512c0-.544-.408-.751-.912-.464l-1.6.923a1.961,1.961,0,0,0-.907,1.512Z" transform="translate(-24.656 10.01)" fill="#37474f"/>
            <path id="Path_1011" data-name="Path 1011" d="M73.487,118.525c0,.544.408.751.912.459l1.593-.917a1.956,1.956,0,0,0,.912-1.512c0-.544-.408-.751-.912-.459l-1.593.917A1.956,1.956,0,0,0,73.487,118.525Z" transform="translate(-23.777 9.505)" fill="#37474f"/>
            <path id="Path_1012" data-name="Path 1012" d="M77.731,116.056c0,.544.408.751.912.459l1.6-.923a1.956,1.956,0,0,0,.907-1.512c0-.544-.408-.751-.907-.459l-1.6.923A1.946,1.946,0,0,0,77.731,116.056Z" transform="translate(-22.894 8.99)" fill="#37474f"/>
            <g id="freepik--add-to-bag-box--inject-40" transform="translate(13.524 136.764)">
              <path id="Path_1013" data-name="Path 1013" d="M76.869,125.511a1.961,1.961,0,0,0-1.764.03l-30.655,17.7a2.016,2.016,0,0,0-.912,1.578v5.792a1.709,1.709,0,0,0,2.621,1.512l30.655-17.7a2.016,2.016,0,0,0,.912-1.578v-5.792a1.946,1.946,0,0,0-.857-1.543Z" transform="translate(-43.536 -125.312)" fill="#105c95"/>
              <path id="Path_1014" data-name="Path 1014" d="M76.869,125.511a1.961,1.961,0,0,0-1.764.03l-30.655,17.7a2.016,2.016,0,0,0-.912,1.578v5.792a1.709,1.709,0,0,0,2.621,1.512l30.655-17.7a2.016,2.016,0,0,0,.912-1.578v-5.792a1.946,1.946,0,0,0-.857-1.543Z" transform="translate(-43.536 -125.312)" opacity="0.3"/>
              <path id="Path_1015" data-name="Path 1015" d="M45.864,144.042l30.655-17.7c.5-.292.912-.055.912.5v5.792a2.016,2.016,0,0,1-.912,1.578l-30.655,17.7c-.5.292-.912.055-.912-.5v-5.782A2.016,2.016,0,0,1,45.864,144.042Z" transform="translate(-43.241 -125.125)" fill="#105c95"/>
              <path id="Path_1016" data-name="Path 1016" d="M77.669,126.908c-.066-.474-.444-.645-.9-.378l-30.655,17.7a1.83,1.83,0,0,0-.645.681L43.758,143.9a1.87,1.87,0,0,1,.645-.681l30.675-17.679a1.956,1.956,0,0,1,1.769-.035A1.981,1.981,0,0,1,77.669,126.908Z" transform="translate(-43.489 -125.313)" fill="#105c95"/>
              <path id="Path_1017" data-name="Path 1017" d="M77.669,126.908c-.066-.474-.444-.645-.9-.378l-30.655,17.7a1.83,1.83,0,0,0-.645.681L43.758,143.9a1.87,1.87,0,0,1,.645-.681l30.675-17.679a1.956,1.956,0,0,1,1.769-.035A1.981,1.981,0,0,1,77.669,126.908Z" transform="translate(-43.489 -125.313)" fill="#fff" opacity="0.5"/>
              <path id="Path_1018" data-name="Path 1018" d="M48.158,141.255q.091-.055.136,0a.232.232,0,0,1,.066.1l1.008,3.241a.207.207,0,0,1,0,.081.247.247,0,0,1-.03.111.192.192,0,0,1-.071.081l-.57.328c-.06.035-.106.045-.131.025a.121.121,0,0,1-.045-.071l-.131-.434-1.2.7-.126.575a.464.464,0,0,1-.05.126.3.3,0,0,1-.126.126l-.575.333a.06.06,0,0,1-.071,0,.091.091,0,0,1-.03-.076.866.866,0,0,1,0-.106l1.008-4.381a1.279,1.279,0,0,1,.066-.171.393.393,0,0,1,.141-.146Zm-.736,3.07.736-.428-.368-1.235Z" transform="translate(-42.98 -122)" fill="#fff"/>
              <path id="Path_1019" data-name="Path 1019" d="M50.642,139.793a1.407,1.407,0,0,1,.57-.207.665.665,0,0,1,.449.091.741.741,0,0,1,.292.363,1.744,1.744,0,0,1,.121.61v.862a3.473,3.473,0,0,1-.116.751,3.024,3.024,0,0,1-.292.7,2.894,2.894,0,0,1-.434.6,2.455,2.455,0,0,1-.57.454l-1.225.706a.076.076,0,0,1-.086,0,.111.111,0,0,1-.035-.1v-3.907a.272.272,0,0,1,.035-.136.217.217,0,0,1,.086-.1Zm.59,1.321c0-.454-.222-.57-.615-.343l-.464.267v2.314l.5-.277a1.169,1.169,0,0,0,.59-1.038v-.7a1.525,1.525,0,0,1-.01-.222Z" transform="translate(-42.333 -122.343)" fill="#fff"/>
              <path id="Path_1020" data-name="Path 1020" d="M53.541,138.115a1.452,1.452,0,0,1,.575-.207.716.716,0,0,1,.444.091.746.746,0,0,1,.3.363,1.774,1.774,0,0,1,.121.615v.857a3.157,3.157,0,0,1-.121.751,3.414,3.414,0,0,1-.287.7,3.024,3.024,0,0,1-.439.6,2.4,2.4,0,0,1-.565.449l-1.225.711h-.086a.111.111,0,0,1-.035-.1v-3.907a.272.272,0,0,1,.035-.136.2.2,0,0,1,.086-.1Zm.595,1.321c0-.454-.222-.57-.615-.343l-.464.267v2.324l.5-.277a1.154,1.154,0,0,0,.595-1.038q0-.129,0-.242v-.459c.005-.071.005-.151.005-.232Z" transform="translate(-41.728 -122.692)" fill="#fff"/>
              <path id="Path_1021" data-name="Path 1021" d="M58.386,135.407a.066.066,0,0,1,.086,0,.111.111,0,0,1,.035.1v.655a.272.272,0,0,1-.035.136.232.232,0,0,1-.086.1l-.8.464v3.1a.282.282,0,0,1-.04.136.212.212,0,0,1-.086.1l-.595.343a.071.071,0,0,1-.086,0,.111.111,0,0,1-.035-.1v-3.1l-.8.459a.076.076,0,0,1-.086,0,.116.116,0,0,1-.04-.1v-.64a.282.282,0,0,1,.04-.136.212.212,0,0,1,.086-.1Z" transform="translate(-40.978 -123.215)" fill="#fff"/>
              <path id="Path_1022" data-name="Path 1022" d="M58.442,136.9a2.854,2.854,0,0,1,.111-.7,3.155,3.155,0,0,1,.711-1.285,2.418,2.418,0,0,1,.59-.469,1.351,1.351,0,0,1,.595-.212.671.671,0,0,1,.434.1.761.761,0,0,1,.277.363,1.739,1.739,0,0,1,.111.575v1.074a3.075,3.075,0,0,1-.111.7,3.024,3.024,0,0,1-.277.686,2.959,2.959,0,0,1-.434.6,2.84,2.84,0,0,1-.595.469,1.513,1.513,0,0,1-.59.212.64.64,0,0,1-.434-.1.741.741,0,0,1-.277-.363,1.618,1.618,0,0,1-.111-.575v-.5C58.442,137.307,58.436,137.06,58.442,136.9Zm1.991-.106v-1.013a.857.857,0,0,0-.05-.252.333.333,0,0,0-.106-.156.282.282,0,0,0-.176-.05.6.6,0,0,0-.247.091,1.008,1.008,0,0,0-.242.192,1.415,1.415,0,0,0-.176.252,1.355,1.355,0,0,0-.106.282,2.062,2.062,0,0,0-.05.308c0,.071,0,.151,0,.237v.776a.6.6,0,0,0,.156.413c.1.081.232.066.418-.04a1.008,1.008,0,0,0,.418-.444,1.608,1.608,0,0,0,.156-.615Z" transform="translate(-40.433 -123.456)" fill="#fff"/>
              <path id="Path_1023" data-name="Path 1023" d="M62.519,137.188a.076.076,0,0,1-.086,0,.116.116,0,0,1-.04-.1v-3.907a.282.282,0,0,1,.04-.136.212.212,0,0,1,.086-.1l1.462-.842a1.175,1.175,0,0,1,.5-.181.438.438,0,0,1,.333.1.57.57,0,0,1,.181.3,1.659,1.659,0,0,1,0,.741,2.524,2.524,0,0,1-.071.267,1.211,1.211,0,0,1-.086.2.967.967,0,0,1-.071.131.378.378,0,0,1,.247.232,1.245,1.245,0,0,1,.071.479,2.611,2.611,0,0,1-.05.5,2.315,2.315,0,0,1-.181.5,2.132,2.132,0,0,1-.323.5,1.932,1.932,0,0,1-.5.393Zm1.694-3.927c0-.106,0-.176-.071-.212s-.111-.03-.207.025l-.7.4v.691l.7-.4a.5.5,0,0,0,.207-.217.565.565,0,0,0,.071-.287Zm-.978,2.576.751-.428a.641.641,0,0,0,.217-.232.721.721,0,0,0,.081-.313.262.262,0,0,0-.081-.217.2.2,0,0,0-.217,0l-.751.434Z" transform="translate(-39.611 -123.937)" fill="#fff"/>
              <path id="Path_1024" data-name="Path 1024" d="M66.926,130.418q.091-.05.136,0a.181.181,0,0,1,.066.1l1.008,3.236a.207.207,0,0,1,0,.081.217.217,0,0,1-.03.111.161.161,0,0,1-.071.081l-.57.333c-.061.035-.106.04-.131,0a.111.111,0,0,1-.045-.071l-.126-.428-1.21.7-.126.575a.363.363,0,0,1-.05.131.332.332,0,0,1-.126.126l-.575.328a.061.061,0,0,1-.071,0,.106.106,0,0,1,0-.076.532.532,0,0,1,0-.1l1.008-4.381a.913.913,0,0,1,.066-.171.358.358,0,0,1,.141-.146Zm-.736,3.065.736-.423-.368-1.24Z" transform="translate(-39.068 -124.255)" fill="#fff"/>
              <path id="Path_1025" data-name="Path 1025" d="M69.345,129.916a.877.877,0,0,0-.257.2,1.2,1.2,0,0,0-.171.257,1.064,1.064,0,0,0-.1.277,1.97,1.97,0,0,0-.05.292q0,.083,0,.227v.791a1.592,1.592,0,0,0,.045.242.388.388,0,0,0,.1.166.242.242,0,0,0,.171.05.5.5,0,0,0,.257-.091,1.128,1.128,0,0,0,.222-.161.968.968,0,0,0,.181-.222,1.074,1.074,0,0,0,.121-.277,1.155,1.155,0,0,0,.045-.333l-.378.222a.086.086,0,0,1-.086,0,.116.116,0,0,1-.04-.1v-.64a.282.282,0,0,1,.04-.136.181.181,0,0,1,.086-.1l1.094-.635a.076.076,0,0,1,.091,0,.116.116,0,0,1,.035.091v.776a2.566,2.566,0,0,1-.111.756,3.085,3.085,0,0,1-.3.7,3.162,3.162,0,0,1-.449.585,2.47,2.47,0,0,1-.555.434,1.366,1.366,0,0,1-.585.207.665.665,0,0,1-.439-.1.716.716,0,0,1-.277-.363,1.7,1.7,0,0,1-.111-.565v-1.054a2.7,2.7,0,0,1,.111-.7,3.15,3.15,0,0,1,.716-1.291,2.35,2.35,0,0,1,.585-.464,1.381,1.381,0,0,1,.57-.207.791.791,0,0,1,.434.066.645.645,0,0,1,.277.257.781.781,0,0,1,.106.368.187.187,0,0,1-.025.111.2.2,0,0,1-.076.081l-.585.328c-.045.025-.081.03-.106,0l-.076-.066a.338.338,0,0,0-.171-.1A.5.5,0,0,0,69.345,129.916Z" transform="translate(-38.457 -124.595)" fill="#fff"/>
            </g>
            <path id="Path_1026" data-name="Path 1026" d="M83.24,104.486a1.18,1.18,0,0,0-1.064,0l-16.409,9.477a1.21,1.21,0,0,0-.549.948v3.67a1.008,1.008,0,0,0,1.578.912l16.419-9.452a1.225,1.225,0,0,0,.549-.953v-3.67A1.18,1.18,0,0,0,83.24,104.486Z" transform="translate(-25.499 7.09)" fill="#263238"/>
            <path id="Path_1027" data-name="Path 1027" d="M83.719,105.319c-.045-.277-.272-.373-.544-.217l-6.841,3.952-9.578,5.52a1.179,1.179,0,0,0-.388.413l-1.008-.595a1.139,1.139,0,0,1,.388-.413l16.409-9.472a1.008,1.008,0,0,1,1.573.812Z" transform="translate(-25.469 7.085)" fill="#455a64"/>
            <path id="Path_1028" data-name="Path 1028" d="M66.069,115.412v3.67c0,.353.247.5.549.318l16.419-9.472a1.225,1.225,0,0,0,.549-.953V105.3c0-.348-.247-.5-.549-.318l-16.409,9.477a1.21,1.21,0,0,0-.56.948Z" transform="translate(-25.322 7.204)" fill="#37474f"/>
            <g id="freepik--stars--inject-40" transform="translate(42.274 114.44)">
              <path id="Path_1029" data-name="Path 1029" d="M68.6,112.624l.267.57a.06.06,0,0,0,.086.035l.6-.227c.1-.04.131.1.066.227l-.434.812a.262.262,0,0,0-.035.156l.1.736c0,.116-.081.272-.166.262l-.534-.066a.141.141,0,0,0-.111.06l-.534.686c-.086.111-.187.071-.171-.066l.106-.857a.121.121,0,0,0-.035-.116l-.434-.313c-.071-.05-.03-.227.066-.3l.6-.464a.252.252,0,0,0,.086-.131l.267-.882C68.432,112.609,68.553,112.539,68.6,112.624Z" transform="translate(-67.333 -105.637)" fill="#105c95"/>
              <path id="Path_1030" data-name="Path 1030" d="M71.105,111.189l.272.57a.066.066,0,0,0,.086.035l.6-.232c.1-.035.131.1.066.227l-.434.812a.272.272,0,0,0-.035.156l.1.741c0,.116-.081.267-.166.257l-.534-.066a.131.131,0,0,0-.111.066l-.534.681c-.086.111-.187.071-.171-.066l.106-.852a.141.141,0,0,0-.035-.121l-.434-.313c-.071-.05-.03-.227.066-.3l.6-.464a.287.287,0,0,0,.086-.136l.267-.877C70.944,111.169,71.065,111.1,71.105,111.189Z" transform="translate(-66.81 -105.936)" fill="#105c95"/>
              <path id="Path_1031" data-name="Path 1031" d="M73.617,109.745l.272.57a.06.06,0,0,0,.086.035l.6-.232c.1-.035.131.1.066.227l-.439.817a.3.3,0,0,0-.03.156l.1.736c0,.116-.081.272-.166.262l-.539-.066a.126.126,0,0,0-.106.061l-.534.686c-.086.106-.187.071-.171-.066l.106-.857a.131.131,0,0,0-.035-.116l-.434-.313c-.071-.05-.03-.227.066-.3l.6-.464a.287.287,0,0,0,.1-.126l.267-.877C73.456,109.745,73.577,109.659,73.617,109.745Z" transform="translate(-66.287 -106.236)" fill="#105c95"/>
              <path id="Path_1032" data-name="Path 1032" d="M76.129,108.315l.267.57a.066.066,0,0,0,.091.03l.6-.227c.1-.035.131.1.06.227l-.434.812a.257.257,0,0,0-.03.156l.1.736c0,.121-.081.272-.166.262l-.539-.066a.136.136,0,0,0-.106.061l-.534.681c-.086.111-.187.071-.171-.066l.1-.852a.126.126,0,0,0-.03-.121l-.434-.313c-.071-.05-.03-.227.066-.3l.595-.459a.3.3,0,0,0,.091-.136l.267-.877C75.963,108.294,76.089,108.224,76.129,108.315Z" transform="translate(-65.764 -106.535)" fill="#105c95"/>
              <path id="Path_1033" data-name="Path 1033" d="M78.662,106.875l.267.57a.071.071,0,0,0,.091.035l.6-.232c.091-.035.131.1.061.227l-.434.817a.252.252,0,0,0-.03.156l.1.736c0,.116-.086.272-.166.257l-.539-.066a.131.131,0,0,0-.106.066l-.539.686c-.081.106-.181.071-.166-.066l.1-.857a.116.116,0,0,0-.03-.116l-.434-.318c-.071-.045-.03-.227.06-.3l.6-.464a.3.3,0,0,0,.091-.136l.267-.877C78.47,106.855,78.6,106.784,78.662,106.875Z" transform="translate(-65.237 -106.834)" fill="#105c95"/>
            </g>
            <g id="freepik--heart-box--inject-40" transform="translate(49.532 130.306)">
              <path id="Path_1034" data-name="Path 1034" d="M81.191,120.162a2.016,2.016,0,0,0-1.8.035l-5.117,2.954a2.057,2.057,0,0,0-.933,1.608v5.908a1.749,1.749,0,0,0,2.677,1.548l5.117-2.929a2.057,2.057,0,0,0,.928-1.613v-5.948A1.986,1.986,0,0,0,81.191,120.162Z" transform="translate(-73.34 -119.967)" fill="#e0e0e0"/>
              <path id="Path_1035" data-name="Path 1035" d="M75.718,123.966l5.117-2.939c.5-.3.928-.06.928.534v5.908a2.057,2.057,0,0,1-.928,1.613l-5.117,2.954c-.5.3-.933.055-.933-.539v-5.933A2.042,2.042,0,0,1,75.718,123.966Z" transform="translate(-73.04 -119.774)" fill="#fff"/>
              <path id="Path_1036" data-name="Path 1036" d="M82.005,121.586c-.066-.5-.449-.66-.917-.388l-5.117,2.954a1.911,1.911,0,0,0-.66.7l-1.744-1.008a1.9,1.9,0,0,1,.66-.691l5.117-2.939a2.016,2.016,0,0,1,1.8-.03,1.976,1.976,0,0,1,.862,1.406Z" transform="translate(-73.293 -119.964)" fill="#f0f0f0"/>
            </g>
            <path id="Path_1037" data-name="Path 1037" d="M75.707,126.813a3.585,3.585,0,0,1,.3-1.386h0a2.384,2.384,0,0,1,.882-1.134c.6-.358,1.109.368,1.19,1.22a3.869,3.869,0,0,1,1.175-2.606.655.655,0,0,1,.892.086h0a1.558,1.558,0,0,1,.308,1.038c0,1.442-.862,2.752-1.588,4.129l-.786,1.331-.756-.423C76.589,128.542,75.717,128.26,75.707,126.813Z" transform="translate(-23.315 10.922)" fill="#105c95"/>
          </g>
        </g>
        <g id="freepik--Character--inject-40" transform="translate(99.727 67.528)">
          <g id="freepik--character--inject-40-2" data-name="freepik--character--inject-40">
            <path id="Path_1038" data-name="Path 1038" d="M117.174,86.8l.8,8.338,7.456-.464-.595-9.245Z" transform="translate(-80.545 -64.378)" fill="#ffa8a7"/>
            <path id="Path_1039" data-name="Path 1039" d="M109.491,74.336a5.927,5.927,0,0,1-.131-1.23,2.878,2.878,0,0,1,.313-1.422c.615-1.079,1.8-1.079,2.878-1.064a16.978,16.978,0,0,0,6.286-1.008c.827-.313,1.623-.711,2.455-1.008a8.476,8.476,0,0,1,6.523.106,5.8,5.8,0,0,1,3.025,3.579c.2.736.116,1.482.257,2.223.176.907.56,1.759.726,2.672a21.05,21.05,0,0,1,.277,2.974c.161,4.119-9.4,6.8-9.21,9.618l-5.091-6.2c0-.257-.721-.9-.882-1.114-.307-.408-.58-.847-.857-1.275a6.957,6.957,0,0,0-2.016-1.976c-.751-.5-1.608-.807-2.324-1.356A6.135,6.135,0,0,1,109.491,74.336Z" transform="translate(-82.172 -68.005)" fill="#263238"/>
            <path id="Path_1040" data-name="Path 1040" d="M112.847,78.987s-1.648,2.455-1.432,2.712a3.917,3.917,0,0,0,1.265.539Z" transform="translate(-81.748 -65.719)" fill="#f28f8f"/>
            <path id="Path_1041" data-name="Path 1041" d="M117.687,72.663c-1.6.817-4.376,2.324-5.091,8.131-.731,5.969.62,8.066,1.447,8.822.56.5,3.438.716,4.945.257,1.88-.57,5.954-2.551,7.864-5.631,2.248-3.619,2.712-8.449.116-10.339A9.855,9.855,0,0,0,117.687,72.663Z" transform="translate(-81.542 -67.169)" fill="#ffa8a7"/>
            <path id="Path_1042" data-name="Path 1042" d="M113.886,86.8a8.79,8.79,0,0,0,4.033.318l-.04-1.074a10.344,10.344,0,0,1-1.906.62,6.946,6.946,0,0,1-2.087.136Z" transform="translate(-81.229 -64.25)" fill="#f28f8f"/>
            <path id="Path_1043" data-name="Path 1043" d="M116.65,72.7a6.346,6.346,0,0,0-1.865,1.079,2.521,2.521,0,0,0-.66.847,1.961,1.961,0,0,0-.136.963,2.576,2.576,0,0,0,1.512,2.072,2.521,2.521,0,0,0-.4,2.077,4.97,4.97,0,0,0,1.467,2.117.323.323,0,0,0,.126.091.348.348,0,0,0,.262-.081c1.008-.675,1.628-1.84,3.055-1.371,1.87.615,1.971,2.43.867,4.033a2.52,2.52,0,0,1-1.744,1.21,1.4,1.4,0,0,1-1.17-.333s.313,3.448,2.929,4.643c0,0,3.07.7,4.7-.368.983-1.25,2.642-2.853,4-4.285,4.487-4.718,4.744-11.569-1.875-13.732-.227-.076-.459-.146-.691-.207a14.15,14.15,0,0,0-9.578.907C117.159,72.487,116.922,72.593,116.65,72.7Z" transform="translate(-81.211 -67.381)" fill="#263238"/>
            <path id="Path_1044" data-name="Path 1044" d="M116.158,82.188a1.381,1.381,0,0,1-.847-1.774,1.427,1.427,0,0,1,1.81-.837Z" transform="translate(-80.95 -65.614)" fill="#263238"/>
            <path id="Path_1045" data-name="Path 1045" d="M126.963,73.078a1.22,1.22,0,0,0,1.719-.242,1.255,1.255,0,0,0-.262-1.739Z" transform="translate(-78.507 -67.362)" fill="#263238"/>
            <path id="Path_1046" data-name="Path 1046" d="M124.677,90.044c5.591.313,6.085,1.25,7.743,5.288s4.28,14.276,4.96,16.993c.307,1.21-8.872,12.683-8.54,12.522.1-.05-2.989-5.218-2.989-5.218l4.124-7.713-2.46-6.553Z" transform="translate(-78.983 -63.418)" fill="#ffa8a7"/>
            <path id="Path_1047" data-name="Path 1047" d="M131.439,120.8a20.538,20.538,0,0,0-2.2-7.158l-8.968,16.066-1.568,5.676s.106,13.006.308,16.131S121.3,179.94,121.3,179.94l.378,5c3.529.983,4.28.05,4.315-.721s.423-3.856.423-3.856a1.924,1.924,0,0,0,1.008-1.628c.106-.706-.63-2.228-.5-3.317.665-5.611,2.253-14.155,2.349-15.965a21.253,21.253,0,0,0-1.6-9.22C128.38,143.709,132.458,129.594,131.439,120.8Z" transform="translate(-80.226 -58.506)" fill="#ffa8a7"/>
            <path id="Path_1048" data-name="Path 1048" d="M121.069,171.129l.378,5c3.529.983,4.28.05,4.315-.721,0-.176.035-.479.071-.837-.57,1.28-1.739.907-2.41-.917s-3.6-17.724-3.6-17.724C120.429,163.376,121.069,171.129,121.069,171.129Z" transform="translate(-79.993 -49.705)" fill="#f28f8f"/>
            <path id="Path_1049" data-name="Path 1049" d="M119.135,179.559s.539.943,3.453-.282,3.735-2.682,3.735-2.682-.756-5.853-2.561-4.381S119.135,179.559,119.135,179.559Z" transform="translate(-80.137 -46.364)" fill="#105c95"/>
            <path id="Path_1050" data-name="Path 1050" d="M119.135,179.559s.539.943,3.453-.282,3.735-2.682,3.735-2.682-.756-5.853-2.561-4.381S119.135,179.559,119.135,179.559Z" transform="translate(-80.137 -46.364)" opacity="0.3"/>
            <path id="Path_1051" data-name="Path 1051" d="M128.246,166.312c-.595-.318-2.178.338-3.11,1.144-1.225,1.054-1.512,2.48-2.147,4.159-.67,1.79-1.885,4.25-2.868,4.8s-2.778.04-4.26.03-2.626.67-2.712,1.754c-.04.847,3.811,2.8,6.246,2.9,2.016.081,2.707.423,3.821-2.521s1.543-4.618,2.43-2.611,1.255,6.553,1.255,6.553a1.432,1.432,0,0,0,1.795-.751,29.671,29.671,0,0,1,.222-3.947c.252-1.815,1.22-4.673,1.094-6.861S128.836,166.6,128.246,166.312Z" transform="translate(-81.383 -47.56)" fill="#263238"/>
            <path id="Path_1052" data-name="Path 1052" d="M130.563,114.2l-21.132,6.437s-2.117,23-2.062,30.01c.035,4.935.3,5.429,1.119,7.294.973,2.193,1.82,4.446,2.692,6.679,1.356,3.463,6.735,16.429,6.553,18.193-.111,1.22-1.437,4.577-2.112,6.745a2.855,2.855,0,0,1-2.4,2.238s2.732,1.88,4.366,1.482c1.215-.292,1.583-1.83,2.016-2.823a6.332,6.332,0,0,1,2.974-3.025,12.1,12.1,0,0,0,1.558-.928,2.8,2.8,0,0,0,1.044-1.447,4.057,4.057,0,0,0-.555-2.647l-.66-1.406a9.255,9.255,0,0,1-.716-2.258c-.388-2.153-.7-4.325-1.044-6.488-.4-2.521-.8-5.091-1.235-7.627a34.083,34.083,0,0,0-1.008-4.93A29.665,29.665,0,0,0,117,153.763l5.636-24.162c6.805-2.016,9.029-4.93,9.815-9.074C133.094,117.119,131.833,116.272,130.563,114.2Z" transform="translate(-82.586 -58.391)" fill="#ffa8a7"/>
            <path id="Path_1053" data-name="Path 1053" d="M109.381,160.607c-2.248-4.713-2.863-7.562-1.941-17.462s1.941-22.66,1.941-22.66l22.6-7.178a33.9,33.9,0,0,1,2.642,13.878c-.242,4.532-3.806,22.766-3.806,22.766a53.576,53.576,0,0,1,1.008,5.4,30.156,30.156,0,0,1,.1,5.389c-.151,2.329-1.452,8.666-1.452,8.666a6.417,6.417,0,0,1-3.569.62,12.568,12.568,0,0,1-4.234-1.3s-.62-7.96-.867-9.749-.5-4.935-.64-7.269c-.171-3.025,0-14.115,0-14.115l-3.619,15.94,1.618,2.929c1.391,2.717,2.576,9.1,3.025,13.666a7.513,7.513,0,0,1-3.463,1.81,15.874,15.874,0,0,1-4.653.383S110.359,162.825,109.381,160.607Z" transform="translate(-82.657 -58.576)" fill="#37474f"/>
            <path id="Path_1054" data-name="Path 1054" d="M118.715,135.451l1.729-7.058s5.918-.756,9.034-4.89c0,0-2.016,5.575-7.622,5.974l-2.626,5.888-.57,5.076Z" transform="translate(-80.236 -56.453)" fill="#263238"/>
            <path id="Path_1055" data-name="Path 1055" d="M114.921,183.117s.539.948,3.453-.277,3.735-2.682,3.735-2.682-.756-5.853-2.561-4.381S114.921,183.117,114.921,183.117Z" transform="translate(-81.014 -45.622)" fill="#105c95"/>
            <path id="Path_1056" data-name="Path 1056" d="M114.921,183.117s.539.948,3.453-.277,3.735-2.682,3.735-2.682-.756-5.853-2.561-4.381S114.921,183.117,114.921,183.117Z" transform="translate(-81.014 -45.622)" opacity="0.3"/>
            <path id="Path_1057" data-name="Path 1057" d="M124.024,169.871c-.595-.313-2.183.343-3.115,1.144-1.225,1.059-1.512,2.485-2.148,4.159-.67,1.79-1.885,4.25-2.868,4.8s-2.778.04-4.26.035-2.626.67-2.712,1.749c-.04.852,3.811,2.808,6.246,2.9,2.016.086,2.707.428,3.826-2.521s1.538-4.623,2.425-2.611,1.255,6.553,1.255,6.553a1.447,1.447,0,0,0,1.8-.751,29.237,29.237,0,0,1,.217-3.947c.252-1.82,1.22-4.678,1.094-6.866S124.624,170.168,124.024,169.871Z" transform="translate(-82.263 -46.819)" fill="#263238"/>
            <path id="Path_1058" data-name="Path 1058" d="M132.514,93.178c-.59-2.127-1.411-3.1-4.063-3.08l-1.326-.081c-.161,1.008-5.626,1.321-7.632-.156-.565-.025-2.576.111-3.73.222l-.348.917c-1.008,1.225-4.643,3.251-7.34,10.944a5.167,5.167,0,0,0,2.445,5.928c-.071,1.7.076,1.674,1.472,7.209l-2.732,8.8s5.127,3.11,13.525,2.46a19.14,19.14,0,0,0,10.768-4.245s-1.3-2.425-3.715-8.041l.555-2.475.877-3.791C133.366,99.732,133.316,96.011,132.514,93.178Z" transform="translate(-82.48 -63.457)" fill="#455a64"/>
            <path id="Path_1059" data-name="Path 1059" d="M131.611,109.526c-1.774,2.521-12.774,5.323-18.551,1.538,0,0-9.175,13.182-10.652,25.014,0,0,7.284,8.862,24.1,6.79,12.27-1.512,16.444-9.16,16.444-9.16a51.49,51.49,0,0,0-5.475-15.511C135.921,115.384,132.377,112.132,131.611,109.526Z" transform="translate(-83.619 -59.363)" fill="#105c95"/>
            <path id="Path_1060" data-name="Path 1060" d="M131.611,109.526c-1.774,2.521-12.774,5.323-18.551,1.538,0,0-9.175,13.182-10.652,25.014,0,0,7.284,8.862,24.1,6.79,12.27-1.512,16.444-9.16,16.444-9.16a51.49,51.49,0,0,0-5.475-15.511C135.921,115.384,132.377,112.132,131.611,109.526Z" transform="translate(-83.619 -59.363)" opacity="0.1"/>
            <path id="Path_1061" data-name="Path 1061" d="M130.634,141l-1.149-.262s-1.134-15.627-7.562-29.294l.8-.2a99.239,99.239,0,0,1,7.209,16.923C132.393,136.491,130.634,141,130.634,141Z" transform="translate(-79.557 -59.005)" fill="#105c95"/>
            <path id="Path_1062" data-name="Path 1062" d="M130.634,141l-1.149-.262s-1.134-15.627-7.562-29.294l.8-.2a99.239,99.239,0,0,1,7.209,16.923C132.393,136.491,130.634,141,130.634,141Z" transform="translate(-79.557 -59.005)" opacity="0.2"/>
            <path id="Path_1063" data-name="Path 1063" d="M113.291,143.543l.862-1.23s-.277-21.888,1.815-30.423l-.555-.061S111.642,123.741,113.291,143.543Z" transform="translate(-81.44 -58.883)" fill="#105c95"/>
            <path id="Path_1064" data-name="Path 1064" d="M113.291,143.543l.862-1.23s-.277-21.888,1.815-30.423l-.555-.061S111.642,123.741,113.291,143.543Z" transform="translate(-81.44 -58.883)" opacity="0.2"/>
            <path id="Path_1065" data-name="Path 1065" d="M114.973,142.275v1.381c-8.676-1.008-10.3-4.1-10.3-4.1.076-.428.146-.857.222-1.291a102.389,102.389,0,0,1,9.3-26.98,14.752,14.752,0,0,0,2.909.66h0C114.852,118.95,114.908,137.143,114.973,142.275Z" transform="translate(-83.148 -58.997)" fill="#105c95"/>
            <path id="Path_1066" data-name="Path 1066" d="M114.973,142.275v1.381c-8.676-1.008-10.3-4.1-10.3-4.1.076-.428.146-.857.222-1.291a102.389,102.389,0,0,1,9.3-26.98,14.752,14.752,0,0,0,2.909.66h0C114.852,118.95,114.908,137.143,114.973,142.275Z" transform="translate(-83.148 -58.997)" fill="#105c95" opacity="0.3"/>
            <path id="Path_1067" data-name="Path 1067" d="M126.593,142.51a18.616,18.616,0,0,1-10.254,1.185c0-.353-.03-.706-.04-1.054a179.021,179.021,0,0,1,1.946-30.655,26.033,26.033,0,0,0,2.611-.232c4.073,10.9,5.444,26.844,5.7,30.146C126.578,142.3,126.593,142.51,126.593,142.51Z" transform="translate(-80.744 -58.899)" fill="#105c95"/>
            <path id="Path_1068" data-name="Path 1068" d="M137.312,136.693a19.622,19.622,0,0,1-6.831,4.446c0-.247-.025-.5-.035-.741-.746-12.472-7.1-27.257-7.864-29.011a18.8,18.8,0,0,0,2.45-.822c7.057,5.545,11.09,20.971,12.048,25.1C137.246,136.325,137.312,136.693,137.312,136.693Z" transform="translate(-79.419 -59.147)" fill="#105c95"/>
            <path id="Path_1069" data-name="Path 1069" d="M110.774,108.943c.156.791.338,1.951.5,2.521a17.547,17.547,0,0,0,9.109,1.774c5.727-.242,8.892-1.694,9.472-3.347l-.081-2.042C127.1,111.1,116.888,112.653,110.774,108.943Z" transform="translate(-81.877 -59.712)" fill="#37474f"/>
            <path id="Path_1070" data-name="Path 1070" d="M97.94,101.835c-1.038-1.19-1.215-3.816-2.6-5.626s-1.134-3.63-2.016-2.818-.222,3.776-.222,3.776a17.536,17.536,0,0,0-1.749,4.537c-.136,1.543,3.922,5.384,3.922,5.384Z" transform="translate(-85.921 -62.763)" fill="#ffa8a7"/>
            <path id="Path_1071" data-name="Path 1071" d="M94.282,96.685c-.776,1.129-3.337-.721-4.033-1.24a4.724,4.724,0,0,0-1.4-.837,1.462,1.462,0,0,0-1.512.318,1.8,1.8,0,0,0-.368.887,7.118,7.118,0,0,0,1.512,5.782c1.573,1.926,4.134,2.2,6.14,3.554a5.249,5.249,0,0,1-.045-1.3c-.035-.963-.076-1.926-.116-2.889C94.4,99.533,94.337,98.106,94.282,96.685Z" transform="translate(-86.856 -62.486)" fill="#ffa8a7"/>
            <path id="Path_1072" data-name="Path 1072" d="M118.653,90.052c-3.272-.227-6.281.257-8.378,4.492-2.395,4.824-7.138,14.16-7.138,14.16L97.39,102.5s-.832-1.175-2.384,1.386-.867,3.277-.867,3.277,6.669,8.933,7.894,10.082,3.236.252,4.537-1.512,8.494-14.165,8.494-14.165S120.221,95.224,118.653,90.052Z" transform="translate(-85.371 -63.426)" fill="#ffa8a7"/>
            <path id="Path_1073" data-name="Path 1073" d="M106.985,114.348l-1.653-.953a16.132,16.132,0,0,0-.282-2.763c.328-.534.726-1.2,1.154-1.941A20.8,20.8,0,0,1,106.985,114.348Z" transform="translate(-83.069 -59.537)" fill="#263238"/>
            <path id="Path_1074" data-name="Path 1074" d="M108.709,114.067l-.066-.529-.055.035v-.035l-1.648-.953c-.217.615-.469,1.452-.736,2.384-3.408,1.961-9.124,5.268-9.124,5.268l1.754,13.283,11.463-6.654h0a1.008,1.008,0,0,0,.474-.595C111.255,124.87,109.243,116.29,108.709,114.067Z" transform="translate(-84.728 -58.726)" fill="#37474f"/>
            <path id="Path_1075" data-name="Path 1075" d="M108.928,113.537l-11.564,6.674-1.653-.953,11.564-6.674Z" transform="translate(-85.013 -58.726)" fill="#455a64"/>
            <path id="Path_1076" data-name="Path 1076" d="M108.928,113.537l-11.564,6.674-1.653-.953,11.564-6.674Z" transform="translate(-85.013 -58.726)" fill="#fff" opacity="0.1"/>
            <path id="Path_1077" data-name="Path 1077" d="M97.638,122.3s-.071.307,1.054.549,5.792.181,6.412-.187a14.828,14.828,0,0,0,3.025-3.756,18.035,18.035,0,0,0,1.17-2.606Z" transform="translate(-84.611 -57.952)" opacity="0.2"/>
            <path id="Path_1078" data-name="Path 1078" d="M96.15,118.109c-.958,2.783-2.793,9.926-2.521,10.995s1.684,1.88,2.521,2.359,3.287,1.9,3.846.313S97.8,119.087,97.8,119.087Z" transform="translate(-85.451 -57.576)" fill="#263238"/>
            <path id="Path_1079" data-name="Path 1079" d="M97.079,120.067a9.386,9.386,0,0,0,.675,2.863c.428.665,6.1.272,7.058,0s4.456-5.228,4.577-6a15.165,15.165,0,0,0-.761-3.529Z" transform="translate(-84.728 -58.556)" fill="#455a64"/>
            <path id="Path_1080" data-name="Path 1080" d="M103.313,120.553c.025.247.212.328.413.176a.862.862,0,0,0,.313-.716c-.03-.247-.212-.328-.413-.176a.847.847,0,0,0-.313.716Z" transform="translate(-83.43 -57.233)" fill="#105c95"/>
            <path id="Path_1081" data-name="Path 1081" d="M103.338,104.569c-6.049,1.049-7.627,16.358-7.627,16.358l1.653.953c.3-9.049,4.108-15.421,5.449-16.212Z" transform="translate(-85.013 -60.395)" fill="#263238"/>
          </g>
        </g>
      </g>
    </g>
    <rect id="Rectangle_101" data-name="Rectangle 101" width="360" height="70" fill="#ccd8e6"/>
  </g>
</svg>
